<svg viewBox="0 0 512 512" xmlns="http://www.w3.org/2000/svg"><path d="m379 325.79c5.08-1.82 9.5-5 14.21-7.57 7.33-4 14.59-8.21 21.58-12.8 4.89-3.21 10.27-5.92 13.59-11.21a22.4 22.4 0 0 0 3.36-10.76c.6-10.58 5.87-18 14.32-23.83a52.6 52.6 0 0 0 10.09-9.28c3.51-4.16 2.71-9.37 1.85-14.3-.58-3.32-1.89-6.54-2.27-9.87-.57-5 2.31-8.84 5.33-12.51 2.46-3 6.21-4.6 8.37-7.84 5-7.46 4.91-15.43 2.27-23.7-.84-2.64-2.49-4.81-3.54-7.31-.75-1.78-1.3-3.74.6-5.07a4.07 4.07 0 0 1 5.17.51c10.15 8.76 18.16 18.94 21.48 32.28 1.36 5.46.12 10.59-1.24 15.8-2 7.58-5.37 14.74-6.42 22.6a108.17 108.17 0 0 0 -.73 21c.4 6.65-.88 13.25-2.65 19.72-1.95 7.16-4.49 14.12-6.8 21.16a45.28 45.28 0 0 0 -1.27 25c2.48 10-1.11 18.25-5.63 26.47-2.4 4.36-4.73 8.75-4.43 13.84a53.79 53.79 0 0 1 -12.91 39.16c-6.76 8.08-13 16.55-20.47 24.06-8.53 8.57-18.33 15.29-28.85 21.06a309.89 309.89 0 0 1 -67.77 27.52 217 217 0 0 1 -36.6 7c-14.42 1.36-28.78.34-43.16-.45-9.45-.52-18.88-1.37-28.32-2.15-12.26-1-24.49-2.22-36.65-4.12-14.57-2.28-29-5.06-42.91-10.17-14.79-5.46-28.33-13.33-41.37-22.12a187 187 0 0 1 -34.21-29c-13.12-14.42-25.78-29.28-34-47.23-5.69-12.37-9.12-25.45-12.11-38.69-3.5-15.47-6.12-31.11-8.61-46.75a162.34 162.34 0 0 1 -2-35c.59-10.19 2.1-20.37 2.84-30.52 1-13.78 5.45-26.49 9.69-39.25 4.44-13.37 9.35-26.63 16.48-39 4.76-8.25 9.47-16.52 15.41-24a163.22 163.22 0 0 1 15.88-16.67 359 359 0 0 1 28.3-23.8c4.17-3.2 8.39-6.29 12.72-9.26 3.36-2.3 4-6.29 5.51-9.69a91.5 91.5 0 0 0 6.29-23.56c.57-3.94 4.2-5.54 7.54-3.17 6.35 4.5 13.22 8.1 19.9 12a7.41 7.41 0 0 0 7.25.52c11.82-4.65 24.13-7.77 36.48-10.68 11.87-2.8 23.74-5.7 35.78-7.71 12.48-2.08 25-2.93 37.65-1.06 28.31 4.19 56.34 9.59 83.45 18.83 22.53 7.68 42.68 20 61.77 34 5.29 3.89 10.28 8.16 15.48 12.19 3.65 2.83 3.7 6.57 2.54 10.41-3.12 10.32-8.38 19.63-14 28.75-6.23 10.11-13.67 19.3-21.22 28.41-.5.61-1.66 1.07-1 2.15s1.58 0 2.25-.24a300.89 300.89 0 0 0 28.19-11.18c3.72-1.72 7.63-2.93 12-2.18a9.3 9.3 0 0 1 7.42 5.72c3.36 7.6 3 15.42.43 23-5 14.37-10.76 28.4-19.71 40.85-5 6.9-11.25 12.58-17.18 18.64-9.75 10-21.2 17.74-32 26.29-5 4-5.41 9.39-6.24 14.86-1.5 9.92.75 19.59 1.83 29.34a74.16 74.16 0 0 1 .16 7.61c0 4.36-.26 8.66.81 12.95zm-109.43-54.06c-16 13.78-31.56 28.15-47.5 43 6.92 2.13 13.07 4.08 19.26 5.91 5.37 1.58 6.63 1.32 9.51-3.6a184.68 184.68 0 0 0 19.09-45c.26-.26.37-.54 0-.84zm211.43-82.27c.58 10.24-1.83 19.26-10.27 25.61-6.57 5-8.32 10.56-5.72 18.62 3.61 11.22.11 20.79-9.37 28-2.28 1.74-4.54 3.5-6.76 5.31-5.16 4.23-9 8.94-9.42 16.24-.61 11.05-6.12 19.47-15.56 25.41q-8.81 5.54-17.73 10.86c-9.73 5.8-20 10.72-29.33 17.11-6.89 4.7-13.72 9.31-21.62 12.38-9.61 3.75-19.19 7.59-29 10.72-16.76 5.34-34.2 5.69-51.54 6.66-7.26.4-14.51.75-21.72 1.76-12 1.66-24 3.4-36.09 3.62a270.66 270.66 0 0 1 -29.74-.84c-5.57-.51-11.12-1.42-16.63-2.42-4.64-.84-5.28-2.79-2.11-6.94a287.39 287.39 0 0 1 20.54-24.56c20.85-21.76 43.22-41.92 65.61-62.05 18.7-16.81 37.61-33.37 57-49.33 13.71-11.26 28.12-21.68 41.18-33.71 9.17-8.44 18.07-17.2 27.91-24.84 15-11.68 26.78-26.08 36.76-42.08 5.07-8.13 9.64-16.51 12.63-25.66.51-1.54.45-2.59-.92-3.73-25.78-21.45-53.77-38.9-86.34-48.22-18.48-5.29-37.33-8.88-56.18-12.55-15.79-3.08-31.63-4-47.56-1.15-16.85 3-33.49 7.07-50.08 11.26a143.26 143.26 0 0 0 -19.29 6.17c4.9 2.06 9.13 3.86 13.38 5.62 16.51 6.83 34 10.28 51.21 14.61 26.37 6.63 49.65 18.93 68.74 38.56a14 14 0 0 0 6.33 3.8c10.34 3.12 20.37 7 29.25 13.36 2 1.41 3.17 3.6 5.51 4.65 3.31 1.48 3.59 5.26.59 7.38a47 47 0 0 0 -5.57 4.67c-18.95 18.2-39.54 34.46-59.95 50.95-32.47 26.24-66.94 49.94-98.41 77.45-13.31 11.63-26.05 23.82-36.56 38.12-2.38 3.24-5.75 6-6.59 10.11-.69 3.3-2.39 4.4-5.46 4.41a135.66 135.66 0 0 1 -16.12-1.41c-11.35-1.33-22.72-2.52-33.83-5.34-9.66-2.45-17.61-7.39-22.69-16.26-1.81-3.17-3.21-6.47-2.66-10.32.93-6.49 5.77-9 11.08-10.93a96.53 96.53 0 0 1 16.22-4.25c2.32-.41 3.22-1.1 2.48-3.87a71.37 71.37 0 0 1 -2.35-15.95c-.2-5.63-.73-11-4.24-15.9-2.69-3.73-4.3-8.16-5.7-12.57-4.8-15.12-5.64-30.49-4.18-46.29a129.19 129.19 0 0 1 16.71-53c7.91-13.71 15.31-27.71 22.88-41.64.65-1.19 1.68-2.29 1.59-3.83-.29 0-.56-.14-.67 0-4.33 3.41-8.63 6.85-13 10.24-21.34 16.64-38.8 36.44-50.24 61.23a311 311 0 0 0 -14.17 37.89c-1.9 6-4.51 11.93-5.28 18.3-1 8.29-1.75 16.61-2.76 24.9a180.33 180.33 0 0 0 .28 46.48c2.36 17.07 5.46 34 9.15 50.87 4 18 9.51 35.43 20 50.9a227.24 227.24 0 0 0 26 31.62c22.22 22.71 48 40.17 78.37 49.72 25.19 7.9 51.44 10.26 77.65 12.25 12.2.92 24.43 1.33 36.62 2.29a149.84 149.84 0 0 0 36.22-1.79 273.75 273.75 0 0 0 68.4-21.14c13.36-6 26.5-12.45 38.37-21.14 14.18-10.37 24.39-24.39 34.84-38.21a37 37 0 0 0 7.64-23.74 44.7 44.7 0 0 1 6.85-26 55.25 55.25 0 0 0 2.64-5.67 17.22 17.22 0 0 0 1.12-11 64.17 64.17 0 0 1 3-36c5-13 8.2-26.4 7.17-40.56a70 70 0 0 1 3.33-25.39c1.31-4.3 2.88-8.53 4.15-12.84 1.1-3.79 2.37-7.62 1.5-11.65a39.52 39.52 0 0 0 -7.49-15.34zm-303.71 172.74c6.79 1 12.84 1.32 18.87 1.81a182.32 182.32 0 0 0 39.91-1.16c16.05-2.23 32.1-3.78 48.28-4.45a197.53 197.53 0 0 0 23.95-2.18c17.14-2.79 33.06-9.49 48.9-16.29 1.31-.56 2.92-1.07 3.67-2.11 2.16-3 5.35-4.48 8.4-6.17a2.57 2.57 0 0 0 1.67-2.52c0-9.7.44-19.43-1.12-29-1.95-12-2.34-23.84 1.07-35.63a11.71 11.71 0 0 1 3.59-6.18c4.93-4 9.66-8.36 15-11.95 11.41-7.71 21-17.5 30.35-27.46 12.7-13.54 19.26-30.56 25-47.83a22.49 22.49 0 0 0 .22-13c-1.15-4.29-2.41-5-6.69-3.6-1.77.58-3.48 1.33-5.22 2-7.83 3.07-15.18 7.2-23.36 9.55-8.52 2.45-16.56 6.48-25.33 8.23a4.93 4.93 0 0 0 -2.32 1.17c-3.39 3-6.83 5.92-10.21 8.91-9.24 8.19-17.9 17-27.62 24.67-20.51 16.17-40.82 32.6-60.4 49.91a14.06 14.06 0 0 0 -5 8.16c-4.09 18.58-11.54 35.92-20.79 52.5a30.07 30.07 0 0 1 -4.59 6c-3 3.13-6.57 4.52-11.07 3.22-8-2.3-16-4.54-23.84-7.5-1.79-.68-2.94-.64-4.36.77-8.8 8.83-17.9 17.36-26.06 26.8-3.6 4.18-7.03 8.59-10.9 13.33zm3.71-100.67c-.54-.18-.75-.33-.92-.3a76.5 76.5 0 0 1 -36.19-2c-10-2.88-19.51-6.76-27.76-13.28a21.17 21.17 0 0 1 -7.07-8.95 81.75 81.75 0 0 1 -3.9-45c4-20.53 15.56-36.13 32-48.44 17.53-13.14 37.45-19.85 59.12-22.09 13.84-1.42 27.08-.13 40 5.41 24.71 10.59 38.75 37.33 36 60.53-.1.89 0 1.8 0 3.11 15-11.77 29.38-23.43 43.41-35.49.55-.47 1.37-.9 1.07-1.85-1.23-3.89-1.12-8-2.45-11.92-4.07-11.89-11.5-21.4-20.49-29.91-18.21-17.26-40-27.62-64.15-33.45-14.28-3.45-28.62-6.6-42.5-11.56-16.75-6-32.4-14.16-47.57-23.33-3.38-2.05-3.52-2.08-4.23 1.87a92 92 0 0 1 -7.14 21.51c-9.18 20.37-20.34 39.72-31.07 59.29-6.17 11.25-12.82 22.31-15.94 35a168.32 168.32 0 0 0 -3.74 24.32c-2.24 23.66 1.88 45.58 17.38 64.42 4.85 5.89 9.74 12.26 16.61 15.43 14.46 6.67 29.65 11.13 46 8.93 9.22-1.27 16.89-5.54 23.53-12.25zm83.83-78.77a38.64 38.64 0 0 0 -.83-11.76c-6.59-28.08-30.19-41.81-54.25-42.73-10.59-.4-21 1.25-31.31 3.86-20.4 5.18-38 15.19-51.55 31.37-14.86 17.75-18.47 38.39-13.66 60.72 1.26 5.9 2.56 11.94 7.75 15.91 11.31 8.64 24.37 12.73 38.3 14.49a70.44 70.44 0 0 0 23.92-1.43c4.76-1 9.74-1.27 13.91-4.5 19.92-15.44 39.84-30.9 60-46 4.69-3.52 7.47-7.52 7.78-13.26.11-2.27-.03-4.43-.03-6.67zm-105.79 98.4c-2.07.18-4.09.38-6.12.51-12.66.85-24.59-2.56-36.36-6.56-2.09-.71-4.17-.84-5.56.3-5.22 4.26-11.63 4.88-17.76 6.4-8.29 2.05-16.82 3.25-24.76 6.55-4.54 1.89-5.36 4.25-3.12 8.6 3.53 6.84 9.22 11.1 16.51 13.19 13.68 3.92 27.86 4.8 41.89 6.65 2.53.34 4.37-.09 5.44-2.73.42-1.05 1.57-1.82 2.44-2.65 2.62-2.5 5.52-4.76 7.85-7.49 5.85-6.85 10.94-14.36 17.9-20.24.72-.58 1.71-1.11 1.68-2.53zm164.36-133c4.26-4 8.1-7.61 12-11.17 1-.93 1.3-1.66.15-2.66-6.07-5.27-13.35-8.13-21.64-11.31 4.67 8.32 8.48 15.98 9.52 25.12zm-218.13 122c-2.19-1.95-4.35-3.82-6.46-5.75s-4.21-4-6.71-6.31c.05 5.34 1.15 9.82 2.08 14.32.19.91.7 1.52 1.58 1.23 3.24-1.01 6.77-1.06 9.54-3.48z" fill="#455a64"/><path d="m481 189.46a39.52 39.52 0 0 1 7.44 15.37c.87 4-.4 7.86-1.5 11.65-1.27 4.31-2.84 8.54-4.15 12.84a70 70 0 0 0 -3.33 25.39c1 14.16-2.19 27.51-7.17 40.56a64.17 64.17 0 0 0 -3 36 17.22 17.22 0 0 1 -1.12 11 55.25 55.25 0 0 1 -2.64 5.67 44.7 44.7 0 0 0 -6.85 26 37 37 0 0 1 -7.64 23.74c-10.45 13.82-20.66 27.84-34.84 38.21-11.87 8.69-25 15.13-38.37 21.14a273.75 273.75 0 0 1 -68.38 21.06 149.84 149.84 0 0 1 -36.22 1.79c-12.19-1-24.42-1.37-36.62-2.29-26.21-2-52.46-4.35-77.65-12.25-30.42-9.55-56.15-27-78.37-49.72a227.24 227.24 0 0 1 -26-31.62c-10.46-15.47-16-32.87-20-50.9-3.69-16.84-6.79-33.8-9.15-50.87a180.33 180.33 0 0 1 -.28-46.48c1-8.29 1.75-16.61 2.76-24.9.77-6.37 3.38-12.25 5.28-18.3a311 311 0 0 1 14.17-37.89c11.44-24.79 28.9-44.59 50.24-61.23 4.34-3.39 8.64-6.83 13-10.24.11-.09.38 0 .67 0 .09 1.54-.94 2.64-1.59 3.83-7.57 13.92-15 27.93-22.84 41.67a129.19 129.19 0 0 0 -16.71 53c-1.46 15.8-.62 31.17 4.18 46.29 1.4 4.41 3 8.84 5.7 12.57 3.51 4.87 4 10.27 4.24 15.9a71.37 71.37 0 0 0 2.35 15.95c.74 2.77-.16 3.46-2.48 3.87a96.53 96.53 0 0 0 -16.22 4.25c-5.31 1.91-10.15 4.44-11.08 10.93-.55 3.85.85 7.15 2.66 10.32 5.08 8.87 13 13.81 22.69 16.26 11.11 2.82 22.48 4 33.83 5.34a135.66 135.66 0 0 0 16.12 1.36c3.07 0 4.77-1.11 5.46-4.41.84-4.09 4.21-6.87 6.59-10.11 10.51-14.3 23.25-26.49 36.56-38.12 31.47-27.51 65.94-51.21 98.41-77.45 20.41-16.49 41-32.75 59.95-50.95a47 47 0 0 1 5.6-4.69c3-2.12 2.72-5.9-.59-7.38-2.34-1-3.55-3.24-5.51-4.65-8.88-6.37-18.91-10.24-29.25-13.36a14 14 0 0 1 -6.33-3.8c-19.09-19.63-42.37-31.93-68.74-38.56-17.23-4.33-34.7-7.78-51.21-14.61-4.25-1.76-8.48-3.56-13.38-5.62a143.26 143.26 0 0 1 19.31-6.13c16.59-4.19 33.23-8.22 50.08-11.26 15.93-2.87 31.77-1.93 47.56 1.15 18.85 3.67 37.7 7.26 56.18 12.55 32.57 9.32 60.56 26.77 86.34 48.22 1.37 1.14 1.43 2.19.92 3.73-3 9.15-7.56 17.53-12.63 25.66-10 16-21.75 30.4-36.76 42.08-9.84 7.64-18.74 16.4-27.91 24.84-13.06 12-27.47 22.45-41.18 33.71-19.43 16-38.34 32.52-57 49.33-22.45 20.1-44.82 40.29-65.67 62.1a287.39 287.39 0 0 0 -20.54 24.62c-3.17 4.15-2.53 6.1 2.11 6.94 5.51 1 11.06 1.91 16.63 2.42a270.66 270.66 0 0 0 29.74.84c12.14-.22 24.11-2 36.09-3.62 7.21-1 14.46-1.36 21.72-1.76 17.34-1 34.78-1.32 51.54-6.66 9.83-3.13 19.41-7 29-10.72 7.9-3.07 14.73-7.68 21.62-12.38 9.37-6.39 19.6-11.31 29.33-17.11q8.93-5.32 17.73-10.86c9.44-5.94 14.95-14.36 15.56-25.41.41-7.3 4.26-12 9.42-16.24 2.22-1.81 4.48-3.57 6.76-5.31 9.48-7.22 13-16.79 9.37-28-2.6-8.06-.85-13.67 5.72-18.62 8.46-6.41 10.87-15.43 10.27-25.67z" fill="#1ebbee"/><path d="m177.29 362.2c3.87-4.74 7.3-9.15 10.94-13.37 8.16-9.44 17.26-18 26.06-26.8 1.42-1.41 2.57-1.45 4.36-.77 7.8 3 15.83 5.2 23.84 7.5 4.5 1.3 8.06-.09 11.07-3.22a30.07 30.07 0 0 0 4.59-6c9.25-16.58 16.7-33.92 20.79-52.5a14.06 14.06 0 0 1 5-8.16c19.58-17.31 39.89-33.74 60.4-49.91 9.72-7.67 18.38-16.48 27.62-24.67 3.38-3 6.82-5.92 10.21-8.91a4.93 4.93 0 0 1 2.32-1.17c8.77-1.75 16.81-5.78 25.33-8.23 8.18-2.35 15.53-6.48 23.36-9.55 1.74-.68 3.45-1.43 5.22-2 4.28-1.4 5.54-.69 6.69 3.6a22.49 22.49 0 0 1 -.22 13c-5.77 17.27-12.33 34.29-25 47.83-9.33 10-18.94 19.75-30.35 27.46-5.32 3.59-10 7.9-15 11.95a11.71 11.71 0 0 0 -3.59 6.18c-3.41 11.79-3 23.65-1.07 35.63 1.56 9.61 1.08 19.34 1.12 29a2.57 2.57 0 0 1 -1.67 2.52c-3 1.69-6.24 3.14-8.4 6.17-.75 1-2.36 1.55-3.67 2.11-15.84 6.8-31.76 13.5-48.9 16.29a197.53 197.53 0 0 1 -23.95 2.18c-16.18.67-32.23 2.22-48.28 4.45a182.32 182.32 0 0 1 -39.95 1.19c-6.03-.48-12.08-.79-18.87-1.8z" fill="#0f9d58"/><path d="m181 261.53c-6.67 6.71-14.34 11-23.6 12.22-16.31 2.2-31.5-2.26-46-8.93-6.87-3.17-11.76-9.54-16.61-15.43-15.43-18.84-19.55-40.76-17.31-64.39a168.32 168.32 0 0 1 3.79-24.39c3.12-12.65 9.77-23.71 15.94-35 10.73-19.57 21.89-38.92 31.07-59.29a92 92 0 0 0 7.14-21.51c.71-4 .85-3.92 4.23-1.87 15.17 9.17 30.82 17.33 47.57 23.33 13.88 5 28.22 8.11 42.5 11.56 24.14 5.83 45.94 16.19 64.15 33.45 9 8.51 16.42 18 20.49 29.91 1.33 3.9 1.22 8 2.45 11.92.3.95-.52 1.38-1.07 1.85-14 12.06-28.39 23.72-43.41 35.49 0-1.31-.09-2.22 0-3.11 2.71-23.2-11.33-49.94-36-60.53-12.94-5.54-26.18-6.83-40-5.41-21.67 2.24-41.59 9-59.12 22.09-16.41 12.31-27.94 27.91-32 48.44a81.75 81.75 0 0 0 3.9 45 21.17 21.17 0 0 0 7.07 8.95c8.25 6.52 17.75 10.4 27.76 13.28a76.5 76.5 0 0 0 36.19 2c.15.04.36.19.87.37zm-53.89-130.09c10.54 0 20-3.84 26.46-10.69 2.8-3 3.85-6.54 2.58-10.33-1.19-3.54-3.93-5.56-7.8-6.25a29.41 29.41 0 0 0 -17.38 2c-6.38 2.78-12.66 5.63-15.82 12.56-2.59 5.7-.25 10.72 5.82 12a24.07 24.07 0 0 0 6.14.71z" fill="#db4437"/><path d="m264.86 182.76c0 2.2.1 4.4 0 6.6-.31 5.74-3.09 9.74-7.78 13.26-20.16 15.14-40.08 30.6-60 46-4.17 3.23-9.15 3.47-13.91 4.5a70.44 70.44 0 0 1 -23.92 1.43c-13.93-1.76-27-5.85-38.3-14.49-5.19-4-6.49-10-7.75-15.91-4.81-22.33-1.2-43 13.66-60.72 13.55-16.18 31.15-26.19 51.55-31.37 10.27-2.61 20.72-4.26 31.31-3.86 24.06.92 47.66 14.65 54.25 42.73a38.64 38.64 0 0 1 .89 11.83zm-80.16 47.33c7.7 0 13.76-4.09 15.26-10.61a20.69 20.69 0 0 0 -3-16.71c-1-1.56-1.17-2.45 0-4.11 3.92-5.38 2.8-13.54-2-16.56-2.1-1.31-4.23-1.55-5.88.62-1.51 2-.65 3.63 1 5.2 3 2.91 1.93 7.25-2.06 8.49-3.74 1.16-6.4-.6-8.53-3.38-1.3-1.7-2.83-2.49-4.85-1.77s-2.54 2.33-2.38 4.27c.22 2.51-1.07 4.42-2.47 6.27a5 5 0 0 1 -5.09 2.2c-2.28-.42-3.15-2.18-3.57-4.24a21.15 21.15 0 0 1 -.15-6.55c.21-2.11-.72-3.74-2.93-4.13s-3.54.79-4.23 2.81a14.06 14.06 0 0 0 -.66 5.54c.58 9.07 5.22 14.3 12.87 14 2.64-.11 3 .69 3 3 .2 9.3 6.68 15.67 15.67 15.66zm6.64-73.15c0 4.65 2.1 8.88 2.7 13.41.57 4.22 3 7.18 6.43 9.52 3.57 2.47 7.82 1.35 9.52-2.66a15.91 15.91 0 0 0 1.17-9.35c-.92-4.72-2-9.4-3.2-14.07a15.12 15.12 0 0 0 -2.51-5.67c-3.73-4.86-9.38-4.49-12.31.86a16.13 16.13 0 0 0 -1.8 7.96zm-44.81 38.21c.13-6.16-1.84-12.41-5.1-18.23-2.33-4.15-6.86-5.06-9.6-2.07a12.77 12.77 0 0 0 -3.32 6c-1.9 8.66 1.49 16.08 5.76 23 2.85 4.63 9.55 3.25 11.58-1.87.81-2.05.57-4.14.68-6.83z" fill="#fefefe"/><path d="m159.07 281.16c0 1.42-1 1.95-1.65 2.53-7 5.88-12 13.39-17.9 20.24-2.33 2.73-5.23 5-7.85 7.49-.87.83-2 1.6-2.44 2.65-1.07 2.64-2.91 3.07-5.44 2.73-14-1.85-28.21-2.73-41.89-6.65-7.29-2.09-13-6.35-16.51-13.19-2.24-4.35-1.42-6.71 3.12-8.6 7.94-3.3 16.47-4.5 24.76-6.55 6.13-1.52 12.54-2.14 17.76-6.4 1.39-1.14 3.47-1 5.56-.3 11.77 4 23.7 7.41 36.36 6.56 2.05-.13 4.05-.33 6.12-.51z" fill="#fff"/><path d="m269.93 272.1a184.78 184.78 0 0 1 -19.09 45c-2.88 4.92-4.14 5.18-9.51 3.6-6.19-1.83-12.34-3.78-19.26-5.91 15.94-14.9 31.45-29.27 47.5-43a4.17 4.17 0 0 0 .36.31z" fill="#4285f4"/><path d="m269.57 271.73.4-.48c.33.3.22.58 0 .84a3.06 3.06 0 0 1 -.4-.36z" fill="#fefefe"/><g fill="#455a64"><path d="m127.11 131.44a24.07 24.07 0 0 1 -6.14-.64c-6.07-1.31-8.41-6.33-5.82-12 3.16-6.93 9.44-9.78 15.82-12.56a29.41 29.41 0 0 1 17.38-2c3.87.69 6.61 2.71 7.8 6.25 1.27 3.79.22 7.36-2.58 10.33-6.46 6.78-15.92 10.66-26.46 10.62zm.63-7.28c7.76-.36 14.41-2.76 19.89-8 .88-.85 1.77-1.75 1.42-3.13-.39-1.56-1.75-1.34-2.93-1.52-8.88-1.34-16 2.49-22.46 7.87-1 .82-2 2.09-1.71 3.38.33 1.47 2.06.7 3.13 1.08a11.14 11.14 0 0 0 2.66.32z"/><path d="m184.7 230.09c-9 0-15.47-6.36-15.64-15.63 0-2.34-.39-3.14-3-3-7.65.32-12.29-4.91-12.87-14a14.06 14.06 0 0 1 .66-5.54c.69-2 2.05-3.2 4.23-2.81s3.14 2 2.93 4.13a21.15 21.15 0 0 0 .15 6.55c.42 2.06 1.29 3.82 3.57 4.24a5 5 0 0 0 5.14-2.22c1.4-1.85 2.69-3.76 2.47-6.27-.16-1.94.45-3.58 2.38-4.27s3.55.07 4.85 1.77c2.13 2.78 4.79 4.54 8.53 3.38 4-1.24 5.08-5.58 2.06-8.49-1.63-1.57-2.49-3.23-1-5.2 1.65-2.17 3.78-1.93 5.88-.62 4.8 3 5.92 11.18 2 16.56-1.2 1.66-1.07 2.55 0 4.11a20.69 20.69 0 0 1 3 16.71c-1.58 6.51-7.64 10.59-15.34 10.6zm8.17-15.45c0-.33 0-.66 0-1-.2-6.23-2.42-8.63-8.59-9.48a8.73 8.73 0 0 1 -3.43-1c-2.46-1.54-3.71 0-3.87 1.88-.34 3.88-1.36 7.77-.09 11.72 1.38 4.28 4.85 6.66 9.25 6 4.57-.71 6.79-3.37 6.73-8.12z"/><path d="m191.34 156.94a16.13 16.13 0 0 1 1.8-8c2.93-5.35 8.58-5.72 12.31-.86a15.12 15.12 0 0 1 2.51 5.67c1.17 4.67 2.28 9.35 3.2 14.07a15.91 15.91 0 0 1 -1.17 9.35c-1.7 4-6 5.13-9.52 2.66-3.39-2.34-5.86-5.3-6.43-9.52-.6-4.49-2.72-8.72-2.7-13.37z"/><path d="m146.53 195.15c-.11 2.69.13 4.78-.68 6.81-2 5.12-8.73 6.5-11.58 1.87-4.27-6.94-7.66-14.36-5.76-23a12.77 12.77 0 0 1 3.32-6c2.74-3 7.27-2.08 9.6 2.07 3.26 5.84 5.23 12.1 5.1 18.25z"/></g><path d="m127.74 124.16a11.14 11.14 0 0 1 -2.66-.34c-1.07-.38-2.8.39-3.13-1.08-.3-1.29.72-2.56 1.71-3.38 6.5-5.38 13.58-9.21 22.46-7.87 1.18.18 2.54 0 2.93 1.52.35 1.38-.54 2.28-1.42 3.13-5.48 5.26-12.13 7.66-19.89 8.02z" fill="#ffcd40"/><path d="m192.87 214.64c.06 4.75-2.16 7.41-6.73 8.1-4.4.66-7.87-1.72-9.25-6-1.27-4-.25-7.84.09-11.72.16-1.86 1.41-3.42 3.87-1.88a8.73 8.73 0 0 0 3.43 1c6.17.85 8.39 3.25 8.59 9.48.01.38 0 .69 0 1.02z" fill="#fefefe"/><path d="m308.3 356.22c17.14-2.79 33.06-9.49 48.9-16.29 1.31-.56 2.92-1.07 3.67-2.11 2.16-3 5.35-4.48 8.4-6.17a2.57 2.57 0 0 0 1.67-2.52c0-9.7.44-19.43-1.12-29-1.95-12-2.34-23.84 1.07-35.63a11.71 11.71 0 0 1 3.59-6.18c4.93-4 9.66-8.36 15-11.95 11.41-7.71 21-17.5 30.35-27.46 12.7-13.54 19.26-30.56 25-47.83a22.49 22.49 0 0 0 .22-13c-1.15-4.29-2.41-5-6.69-3.6-1.77.58-3.48 1.33-5.22 2-7.83 3.07-15.18 7.2-23.36 9.55-8.52 2.45-16.56 6.48-25.33 8.23a4.93 4.93 0 0 0 -2.32 1.17c-3.39 3-6.83 5.92-10.21 8.91-9.24 8.19-17.9 17-27.62 24.67-20.51 16.17-40.82 32.6-60.4 49.91a14.06 14.06 0 0 0 -5 8.16c-4.09 18.58-11.54 35.92-20.79 52.5a30.07 30.07 0 0 1 -4.59 6 12.66 12.66 0 0 1 -3.93 2.87l9.22 31.76c8.48-.81 17-1.42 25.5-1.77a197.53 197.53 0 0 0 23.99-2.22z" fill="#fff"/><path d="m153 281.67c-12.66.85-24.59-2.56-36.36-6.56-2.09-.71-4.17-.84-5.56.3a23.78 23.78 0 0 1 -8.76 4.29 82 82 0 0 1 2.39 19.87 83.82 83.82 0 0 1 -1.3 14.76c6.8.9 13.63 1.58 20.43 2.47 2.53.34 4.37-.09 5.44-2.73.42-1.05 1.57-1.82 2.44-2.65 2.62-2.5 5.52-4.76 7.85-7.49 5.85-6.85 10.94-14.36 17.9-20.24.69-.58 1.68-1.11 1.65-2.53-2.12.18-4.12.38-6.12.51z" fill="#0f9d58"/><path d="m393.44 195.72a69.84 69.84 0 0 1 -5.75-22.27c-1.06.28-2.14.53-3.23.75a4.93 4.93 0 0 0 -2.32 1.17c-3.39 3-6.83 5.92-10.21 8.91-9.24 8.19-17.9 17-27.62 24.67-20.51 16.17-40.82 32.6-60.4 49.91a14.06 14.06 0 0 0 -5 8.16c-4.09 18.58-11.54 35.92-20.79 52.5a30.07 30.07 0 0 1 -4.59 6 12.66 12.66 0 0 1 -3.93 2.87l9.22 31.76c8.48-.81 17-1.42 25.5-1.77a197.53 197.53 0 0 0 23.95-2.18c17.14-2.79 33.06-9.49 48.9-16.29 1.31-.56 2.92-1.07 3.67-2.11 2.16-3 5.35-4.48 8.4-6.17a2.57 2.57 0 0 0 1.67-2.52c0-9.7.44-19.43-1.12-29-1.95-12-2.34-23.84 1.07-35.63a11.71 11.71 0 0 1 3.59-6.18c4.93-4 9.66-8.36 15-11.95 9.68-6.54 18.06-14.58 26.07-23a66.27 66.27 0 0 1 -22.08-27.63z" fill="#ffcd40"/><path d="m96.18 279.66c5.78 10.09 9.36 27.19-.84 35.86-2.63 2.25 1.18 6 3.8 3.8 12.07-10.26 8.64-30.21 1.68-42.37-1.72-3-6.36-.3-4.64 2.71z" fill="#455a64"/><path d="m244.73 328.54 9.7 33.18c1 3.31 6.15 1.9 5.18-1.43l-9.7-33.18c-1-3.31-6.15-1.91-5.18 1.43z" fill="#455a64"/><path d="m386 168.21c.74 11.17 1.66 22.5 6.4 32.82s12.21 18.67 19.6 26.97c2.3 2.59 6.09-1.22 3.79-3.79-6.44-7.22-13-14.54-17.5-23.2-5.25-10.17-6.21-21.53-7-32.77-.23-3.43-5.6-3.46-5.37 0z" fill="#455a64"/></svg>